HIERARCHY
ROOT Hips
{
  OFFSET -31.5692 30.0904 122.763
  CHANNELS 6 Xposition Yposition Zposition Zrotation Xrotation Yrotation
  JOINT LeftUpLeg
  {
    OFFSET 8.64259 1.95398 -2.38835
    CHANNELS 3 Zrotation Xrotation Yrotation
    JOINT LeftLeg
    {
      OFFSET 43.7702 0 0
      CHANNELS 3 Zrotation Xrotation Yrotation
      JOINT LeftFoot
      {
        OFFSET 40.6238 0 0
        CHANNELS 3 Zrotation Xrotation Yrotation
        JOINT LeftToeBase
        {
          OFFSET 12.7242 0 0
          CHANNELS 3 Zrotation Xrotation Yrotation
          End Site
          {
            OFFSET 0 0 0
          }
        }
      }
    }
  }
  JOINT RightUpLeg
  {
    OFFSET -8.2249 1.95398 -2.59336
    CHANNELS 3 Zrotation Xrotation Yrotation
    JOINT RightLeg
    {
      OFFSET 43.5653 0 0
      CHANNELS 3 Zrotation Xrotation Yrotation
      JOINT RightFoot
      {
        OFFSET 40.6238 0 0
        CHANNELS 3 Zrotation Xrotation Yrotation
        JOINT RightToeBase
        {
          OFFSET 12.7242 0 0
          CHANNELS 3 Zrotation Xrotation Yrotation
          End Site
          {
            OFFSET 0 0 0
          }
        }
      }
    }
  }
  JOINT Spine
  {
    OFFSET 0.165834 0.87714 6.61349
    CHANNELS 3 Zrotation Xrotation Yrotation
    JOINT Spine1
    {
      OFFSET 7.38963 1.71661e-005 0
      CHANNELS 3 Zrotation Xrotation Yrotation
      JOINT Spine2
      {
        OFFSET 11.9445 1.14441e-005 0
        CHANNELS 3 Zrotation Xrotation Yrotation
        JOINT Spine3
        {
          OFFSET 14.7254 4.19617e-005 0
          CHANNELS 3 Zrotation Xrotation Yrotation
          JOINT Spine4
          {
            OFFSET 10.9679 0 0
            CHANNELS 3 Zrotation Xrotation Yrotation
            JOINT RightShoulder
            {
              OFFSET 2.46616 -1.6653 3.69651
              CHANNELS 3 Zrotation Xrotation Yrotation
              JOINT RightArm
              {
                OFFSET 13.0012 0 0
                CHANNELS 3 Zrotation Xrotation Yrotation
                JOINT RightForeArm
                {
                  OFFSET 28.7848 1.62311e-005 0
                  CHANNELS 3 Zrotation Xrotation Yrotation
                  JOINT RightHand
                  {
                    OFFSET 26.5688 1.62095e-005 0
                    CHANNELS 3 Zrotation Xrotation Yrotation
                    End Site
                    {
                      OFFSET 0 0 0
                    }
                  }
                }
              }
            }
            JOINT LeftShoulder
            {
              OFFSET 2.38034 -1.29275 -3.7523
              CHANNELS 3 Zrotation Xrotation Yrotation
              JOINT LeftArm
              {
                OFFSET 16.3182 6.07031e-005 0
                CHANNELS 3 Zrotation Xrotation Yrotation
                JOINT LeftForeArm
                {
                  OFFSET 27.0901 0 0
                  CHANNELS 3 Zrotation Xrotation Yrotation
                  JOINT LeftHand
                  {
                    OFFSET 24.5451 1.51738e-005 0
                    CHANNELS 3 Zrotation Xrotation Yrotation
                    End Site
                    {
                      OFFSET 0 0 0
                    }
                  }
                }
              }
            }
            JOINT Neck
            {
              OFFSET 5.0226 -0.0266342 0
              CHANNELS 3 Zrotation Xrotation Yrotation
              JOINT Head
              {
                OFFSET 6.69364 2.86102e-005 0
                CHANNELS 3 Zrotation Xrotation Yrotation
                End Site
                {
                  OFFSET 0 0 0
                }
              }
            }
          }
        }
      }
    }
  }
}
MOTION
Frames:	9
Frame Time:	0.0416667
-291.068 85.4016 -285.156 -104.394 30.3479 -81.2792 -171.421 13.6818 99.2723 -35.7788 -79.6596 43.0038 133.821 -30.8083 -101.929 6.30011 -22.9861 17.5381 179.296 25.7492 88.4576 -71.2581 -17.1591 -7.54137 80.2599 -10.696 -4.48398 27.398 -0.0798528 3.37789 -0.570441 8.05205 -90.1846 10.7688 -1.22102 -0.254174 -0.901601 -1.23104 -0.200183 -23.4404 -1.08819 -0.609428 -3.42775 -1.08819 -0.609429 93.8289 -24.9697 -100.567 42.8689 -3.56848 26.9599 -29.5856 -29.2262 -64.2855 -36.6907 3.25199 -22.9036 -85.3723 -44.3341 84.8565 -10.5963 14.9277 -20.0025 48.9671 17.2416 -63.0732 24.7702 -14.0906 -52.9583 13.5756 2.91889 -2.17978 -9.32258 3.36889 0.724478 
-287.567 88.1782 -282.576 -105.387 29.9415 -79.934 -170.394 3.95491 101.217 -69.6352 -42.6013 7.80729 130.004 -11.5136 -69.7881 -8.85768 -23.2345 3.2846 -179.994 23.8959 89.5999 -62.7289 -17.3115 -7.70478 73.3844 -6.71016 -4.25523 26.0301 0.33981 4.13408 -1.41834 7.94676 -90.1965 10.9817 -2.91464 -0.113862 -0.685935 -2.91679 0.0146149 -23.2454 -2.74553 -0.98524 -3.23279 -2.74555 -0.98525 95.1963 -23.4777 -97.9716 44.7037 -6.71243 35.4191 -28.8957 -26.7478 -67.7664 -32.6625 3.69808 -26.8348 -85.5454 -40.1888 83.8861 -7.59186 12.3037 -22.0556 40.9162 9.53487 -63.8744 22.2776 -12.8241 -53.5431 8.81016 6.52892 -2.24892 -7.46255 6.78514 2.73777 
-285.735 92.3461 -279.109 -108.793 31.8058 -76.4229 -169.261 -6.2235 98.2046 -66.9953 -3.04031 4.61118 106.186 19.263 -23.8901 -6.35647 -16.7473 -2.92915 -179.976 16.9589 90.0618 -48.7959 -21.4135 -8.43385 65.0187 -1.91675 -2.57872 23.3922 1.25353 4.99435 -1.93931 8.17954 -90.4281 10.5135 -4.05946 -0.492247 -1.15114 -4.07719 -0.31282 -23.73 -3.72364 -1.69112 -3.71735 -3.72364 -1.69112 96.1466 -20.11 -96.7314 44.9787 -8.39089 41.8049 -30.8847 -24.4357 -71.5492 -27.8108 3.85753 -31.7523 -86.0142 -36.2232 82.3475 -5.92076 9.59033 -21.2132 39.2955 9.42499 -65.1867 24.802 -13.6954 -51.7652 6.29972 9.87334 -1.78696 -7.97884 9.83653 5.9246 
-282.09 95.9725 -275.153 -108.778 33.996 -75.1111 -170.365 -8.75174 94.7752 -61.0995 16.4765 4.2615 80.9437 14.6607 3.92974 12.8058 -7.26025 -1.31708 179.143 12.4564 89.7109 -31.1029 -28.6193 -7.42652 56.4709 2.67768 0.155509 16.7611 3.87212 5.6772 -2.07861 8.16738 -90.6509 10.5256 -4.43914 -0.898641 -1.13796 -4.47439 -0.702022 -23.7216 -3.96359 -2.19309 -3.70894 -3.96357 -2.19308 96.04 -19.563 -97.1266 42.6765 -6.605 45.737 -29.7796 -22.0759 -71.4172 -27.4627 4.93733 -36.4955 -86.5032 -32.6981 80.669 -3.73084 10.403 -22.0331 40.5954 10.6378 -64.8616 25.2734 -13.1558 -49.2817 4.89645 11.1602 -3.10936 -9.59224 11.119 8.49504 
-276.502 97.8712 -271.313 -102.9 35.6653 -77.3362 -171.476 -2.2865 94.2614 -56.3612 18.9199 3.77534 71.6093 8.10946 6.90738 18.2287 -4.33392 -1.78312 -178.911 14.8337 90.3399 -23.1372 -32.6722 -8.10416 58.2653 0.947212 0.615081 18.4026 3.55952 4.40993 -2.01231 7.61359 -90.8519 11.6278 -4.40192 -1.24063 -0.0361467 -4.45225 -1.04535 -22.6144 -3.8254 -2.50774 -2.60178 -3.82541 -2.50775 95.3591 -20.1835 -98.579 41.4044 -2.56633 46.513 -27.2533 -19.1468 -70.2109 -25.1717 5.35938 -40.3317 -86.8429 -30.4127 79.4733 -1.68041 14.2258 -21.9997 41.9245 13.1293 -63.2738 28.5964 -14.2967 -47.4401 4.83917 10.826 -8.5739 -11.9876 11.3267 12.4124 
-271.014 97.9391 -265.616 -102.2 41.3364 -79.0408 -171.962 1.74833 90.7462 -52.0232 11.6485 1.2232 68.2191 4.54481 4.3719 20.6318 -4.08798 0.40575 -177.137 19.7587 88.4893 -32.4871 -31.7334 -9.63262 63.4923 -2.69903 -1.29274 14.8381 4.96538 4.89587 -1.38906 7.55426 -90.6848 11.7528 -3.08416 -1.0395 0.0852149 -3.12694 -0.902639 -22.4696 -2.62914 -1.91881 -2.45691 -2.62913 -1.91882 94.6595 -22.448 -99.5113 39.9899 -1.5644 40.9941 -28.895 -18.6634 -71.3971 -27.8483 6.19348 -40.591 -87.4413 -32.9706 78.9927 0.802477 19.7882 -17.9036 41.7678 11.8405 -62.7175 29.9937 -14.8125 -46.9019 8.53316 10.3115 -11.637 -13.3909 11.44 13.7014 
-265.289 96.6754 -260.614 -102.19 43.9945 -78.7513 -172.058 6.17766 88.496 -52.813 9.7486 0.548353 70.3305 5.84195 3.88811 28.7014 -2.6578 7.76737 -177.277 23.3964 88.5378 -45.4125 -18.8896 -7.96389 67.7876 -4.80512 -2.19071 17.163 3.62152 5.91581 -1.08059 7.66906 -90.6919 11.524 -2.47332 -1.1254 -0.145021 -2.52046 -1.0154 -22.6899 -2.02079 -1.81685 -2.67729 -2.02077 -1.81685 93.3272 -26.2954 -101.225 34.558 -2.64387 32.308 -35.6024 -17.1973 -77.3657 -31.1611 6.27464 -37.9528 -88.5541 -40.0611 78.7811 3.00032 24.8459 -9.0132 39.2271 8.04275 -64.2259 27.9111 -13.0746 -45.2381 13.4735 9.8003 -12.781 -15.1812 11.5309 13.0147 
-259.67 95.1008 -255.615 -104.254 46.0826 -76.7335 -170.664 8.90111 89.4997 -53.1732 9.48848 -0.203403 71.2817 7.19783 5.69847 41.3934 4.8312 4.57197 -178.275 24.804 88.6242 -62.4169 -11.284 -7.09669 71.3818 -6.30008 -2.84756 18.3693 2.95991 6.41329 -0.663116 7.89045 -90.6334 11.0845 -1.61362 -1.10349 -0.585802 -1.66063 -1.03139 -23.1222 -1.20741 -1.53742 -3.10955 -1.20744 -1.53742 90.7093 -28.5891 -105.859 28.3919 -1.58436 23.7556 -34.3577 -12.4636 -80.7188 -31.7123 6.37849 -36.7428 -87.9766 -43.7525 80.5516 -1.04362 27.3831 -1.22392 39.3434 9.2449 -62.7572 30.6446 -13.026 -41.5498 14.9232 8.89877 -13.2214 -14.1991 11.1489 11.5655 
-254.656 93.7315 -251.049 -105.763 47.5817 -74.675 -169.199 12.6447 90.458 -55.1643 10.2254 -0.672673 76.9459 11.4556 5.55512 31.3327 -0.724405 6.21951 179.529 22.3299 88.3182 -75.252 -6.77308 -6.23097 72.6819 -7.36625 -4.45696 18.2602 2.54993 7.91181 -0.173414 7.8458 -90.58 11.178 -0.614676 -1.09437 -0.493191 -0.662257 -1.06627 -23.0249 -0.257407 -1.22849 -3.0123 -0.257396 -1.22849 92.7148 -30.5133 -101.185 21.6119 -4.08019 9.85286 -37.6918 -10.4189 -84.6148 -32.8561 5.7829 -33.9467 -86.3054 -44.4767 83.3789 -10.5015 30.3518 10.9238 40.9072 9.83684 -61.2451 27.8484 -11.6789 -41.1161 14.4078 7.27663 -13.2993 -12.9194 9.79779 9.94646 
